<svg width="18" height="18" viewBox="0 0 18 18" fill="none" xmlns="http://www.w3.org/2000/svg">
<path d="M16.6499 2.02499H1.3499C1.23055 2.02499 1.1161 2.0724 1.0317 2.1568C0.947313 2.24119 0.899902 2.35565 0.899902 2.47499V12.825C0.899902 13.183 1.04213 13.5264 1.29531 13.7796C1.54848 14.0328 1.89186 14.175 2.2499 14.175H6.2999V15.075H5.3999C5.28056 15.075 5.1661 15.1224 5.0817 15.2068C4.99731 15.2912 4.9499 15.4056 4.9499 15.525C4.9499 15.6443 4.99731 15.7588 5.0817 15.8432C5.1661 15.9276 5.28056 15.975 5.3999 15.975H12.5999C12.7193 15.975 12.8337 15.9276 12.9181 15.8432C13.0025 15.7588 13.0499 15.6443 13.0499 15.525C13.0499 15.4056 13.0025 15.2912 12.9181 15.2068C12.8337 15.1224 12.7193 15.075 12.5999 15.075H11.6999V14.175H15.7499C16.1079 14.175 16.4513 14.0328 16.7045 13.7796C16.9577 13.5264 17.0999 13.183 17.0999 12.825V2.47499C17.0999 2.35565 17.0525 2.24119 16.9681 2.1568C16.8837 2.0724 16.7693 2.02499 16.6499 2.02499ZM1.7999 2.92499H16.1999V10.35H1.7999V2.92499ZM10.7999 15.075H7.1999V14.175H10.7999V15.075ZM16.1999 12.825C16.1999 12.9443 16.1525 13.0588 16.0681 13.1432C15.9837 13.2276 15.8693 13.275 15.7499 13.275H2.2499C2.13055 13.275 2.0161 13.2276 1.9317 13.1432C1.84731 13.0588 1.7999 12.9443 1.7999 12.825V11.25H16.1999V12.825Z" fill="#7B7B7B"/>
<path d="M8.54985 12.6H9.44985C9.5692 12.6 9.68366 12.5526 9.76805 12.4682C9.85244 12.3838 9.89985 12.2693 9.89985 12.15C9.89985 12.0306 9.85244 11.9162 9.76805 11.8318C9.68366 11.7474 9.5692 11.7 9.44985 11.7H8.54985C8.43051 11.7 8.31605 11.7474 8.23166 11.8318C8.14726 11.9162 8.09985 12.0306 8.09985 12.15C8.09985 12.2693 8.14726 12.3838 8.23166 12.4682C8.31605 12.5526 8.43051 12.6 8.54985 12.6Z" fill="#7B7B7B"/>
</svg>
