<svg width="18" height="18" viewBox="0 0 18 18" fill="none" xmlns="http://www.w3.org/2000/svg">
<path d="M9.7284 4.82199C9.7284 5.05497 9.53951 5.24386 9.30653 5.24386H8.69347C8.46049 5.24386 8.2716 5.05497 8.2716 4.82199C8.2716 4.58901 8.46049 4.40011 8.69347 4.40011H9.30653C9.53951 4.40011 9.7284 4.58901 9.7284 4.82199ZM18 12.8009V13.3473C18 14.2701 17.2493 15.0209 16.3264 15.0209H1.67358C0.750727 15.0209 0 14.2701 0 13.3473V12.8009C0 12.5679 0.188895 12.379 0.421875 12.379H1.04516C0.937195 12.1682 0.875848 11.9297 0.875848 11.677V4.52488C0.875848 3.67255 1.5693 2.9791 2.42163 2.9791H15.5784C16.4308 2.9791 17.1242 3.67255 17.1242 4.52488V11.677C17.1242 11.9297 17.0629 12.1682 16.9549 12.379H17.5781C17.8111 12.379 18 12.5679 18 12.8009ZM2.4216 12.379H15.5784C15.9655 12.379 16.2804 12.0641 16.2804 11.677V4.52488C16.2804 4.13777 15.9655 3.82285 15.5784 3.82285H2.4216C2.03449 3.82285 1.71956 4.13777 1.71956 4.52488V11.677C1.71956 12.0641 2.03449 12.379 2.4216 12.379ZM17.1562 13.2227H0.84375V13.3473C0.84375 13.8049 1.21602 14.1771 1.67358 14.1771H16.3265C16.784 14.1771 17.1563 13.8049 17.1563 13.3473V13.2227H17.1562Z" fill="#7B7B7B"/>
</svg>
