<svg width="145" height="48" viewBox="0 0 145 48" fill="none" xmlns="http://www.w3.org/2000/svg">
<g clip-path="url(#clip0_11_37)">
<path d="M23.7331 44.4145C24.7534 44.4145 25.7573 44.335 26.7383 44.1892V27.8258H32.9914C32.2467 18.9979 33.6705 11.8998 35.1731 7.17101C31.9186 4.91102 27.9817 3.58551 23.7331 3.58551C19.4845 3.58551 15.5476 4.91102 12.2963 7.17101C13.7989 11.8998 15.2228 18.9979 14.478 27.8258H21.8794V44.3283C22.4897 44.3847 23.1097 44.4178 23.7364 44.4178L23.7331 44.4145ZM15.6066 16.2441C15.6066 11.7109 19.245 8.03591 23.7331 8.03591C28.2212 8.03591 31.8595 11.7109 31.8595 16.2441C31.8595 20.7774 28.2212 24.4523 23.7331 24.4523C19.245 24.4523 15.6066 20.7774 15.6066 16.2441Z" fill="#9C1F24"/>
<path d="M3.52026 24.0016C3.52026 29.8273 5.94147 35.0796 9.81605 38.801C13.4315 25.9071 11.9157 15.4024 10.0654 8.96375C6.04317 12.6951 3.52026 18.0501 3.52026 24.0016Z" fill="#9C1F24"/>
<path d="M43.9459 24.0016C43.9459 18.0501 41.4229 12.6951 37.4007 8.96375C35.5504 15.4024 34.0347 25.9071 37.6501 38.801C41.5246 35.0829 43.9459 29.8273 43.9459 24.0016Z" fill="#9C1F24"/>
<path d="M19.2843 30.4403H14.1926C13.7792 33.6381 13.0771 37.0414 11.9977 40.6169C14.1499 42.1711 16.6171 43.3077 19.2843 43.9108V30.437V30.4403Z" fill="#9C1F24"/>
<path d="M33.2702 30.4403H29.33V43.6159C31.5577 42.9697 33.6278 41.9457 35.4683 40.6169C34.389 37.0413 33.6869 33.6381 33.2735 30.4403H33.2702Z" fill="#9C1F24"/>
<path d="M1.86019 18.9018C2.3359 18.9018 2.74271 18.5737 2.87394 18.1098C5.42638 8.89748 13.8087 2.1175 23.733 2.1175C33.6574 2.1175 42.0397 8.89417 44.5922 18.1098C44.7201 18.5737 45.1269 18.9018 45.6059 18.9018C46.2982 18.9018 46.8067 18.2324 46.6197 17.5564C43.8245 7.44273 34.6252 0 23.733 0C12.8409 0 3.64164 7.44273 0.846429 17.5564C0.659425 18.2324 1.16794 18.9018 1.86019 18.9018Z" fill="#9C1F24"/>
<path d="M45.6026 29.0983C45.1269 29.0983 44.7201 29.4263 44.5889 29.8903C42.0364 39.1025 33.6541 45.8825 23.7298 45.8825C13.8054 45.8825 5.42636 39.1025 2.87065 29.8903C2.7427 29.4263 2.33588 29.0983 1.85689 29.0983C1.16465 29.0983 0.656129 29.7677 0.843133 30.4437C3.63835 40.5573 12.8376 48 23.7298 48C34.6219 48 43.8212 40.5573 46.6164 30.4437C46.8034 29.7677 46.2949 29.0983 45.6026 29.0983Z" fill="#9C1F24"/>
<path d="M2.66726 24.0017C2.66726 23.2561 2.07016 22.653 1.33527 22.653C0.60038 22.653 0 23.2561 0 24.0017C0 24.7473 0.597099 25.3471 1.33527 25.3471C2.07344 25.3471 2.66726 24.7439 2.66726 24.0017Z" fill="#9C1F24"/>
<path d="M46.1308 22.653C45.3926 22.653 44.7988 23.2561 44.7988 24.0017C44.7988 24.7473 45.3959 25.3471 46.1308 25.3471C46.8657 25.3471 47.4628 24.7439 47.4628 24.0017C47.4628 23.2594 46.8657 22.653 46.1308 22.653Z" fill="#9C1F24"/>
<path d="M23.733 23.4251C24.9699 17.7751 31.1673 16.2441 31.1673 16.2441C31.1673 16.2441 24.9666 14.7132 23.733 9.06317C22.4962 14.7132 16.2988 16.2441 16.2988 16.2441C16.2988 16.2441 22.4995 17.7751 23.733 23.4251Z" fill="#9C1F24"/>
<path d="M62.059 40.7495L61.4422 41.389H56.5735V36.8525H60.4941L59.9396 37.4755H58.1352V40.7826H60.4941V36.8525H61.4947L62.0557 37.4456V40.7528L62.059 40.7495Z" fill="#231815"/>
<path d="M64.9887 41.389H63.4664V36.8525H64.9887V41.389Z" fill="#231815"/>
<path d="M70.1395 41.389L67.9742 38.231V41.389H66.3962V36.8525H68.1612L70.3167 40.0635V36.8525H71.8783V41.389H70.1363H70.1395Z" fill="#231815"/>
<path d="M77.2096 40.7992V39.2052H76.0449V38.6054H78.7712V41.3923H77.2096V40.9118L76.7404 41.3923H73.2891V36.8558H78.7975L78.453 37.4489H74.8901V40.8025H77.2096V40.7992Z" fill="#231815"/>
<path d="M86.1923 36.8425L84.1615 39.0528L86.3038 41.3824H84.4535L83.2429 40.0801L82.0552 41.3824H80.2049L82.344 39.0694L80.2738 36.8425H82.111L83.2593 38.1117L84.3682 36.8425H86.1956H86.1923Z" fill="#231815"/>
<path d="M89.2336 41.389H87.7113V36.8525H89.2336V41.389Z" fill="#231815"/>
<path d="M94.3811 41.389L92.2158 38.231V41.389H90.6378V36.8525H92.4028L94.5583 40.0635V36.8525H96.1199V41.389H94.3778H94.3811Z" fill="#231815"/>
<path d="M103.797 37.4589V38.7678H106.874L106.507 39.3842H103.797V41.389H102.219V36.8525H106.986L106.651 37.4589H103.8H103.797Z" fill="#231815"/>
<path d="M109.912 41.389H108.39V36.8525H109.912V41.389Z" fill="#231815"/>
<path d="M115.063 41.389L112.898 38.231V41.389H111.32V36.8525H113.085L115.24 40.0635V36.8525H116.802V41.389H115.06H115.063Z" fill="#231815"/>
<path d="M120.555 39.6858H122.432L121.969 40.3087H120.296L119.882 41.389H118.209L120.02 36.8525H122.894L124.715 41.389H123.058L122.425 39.6858L121.582 37.4589H121.333L120.552 39.6858H120.555Z" fill="#231815"/>
<path d="M129.866 41.389L127.701 38.231V41.389H126.122V36.8525H127.888L130.043 40.0635V36.8525H131.605V41.389H129.863H129.866Z" fill="#231815"/>
<path d="M134.587 37.4423V40.7959H138.635L138.291 41.389H133.019V36.8525H138.442L138.019 37.4456H134.59L134.587 37.4423Z" fill="#231815"/>
<path d="M145 40.7992L144.656 41.3923H140.039V36.8558H144.984L144.633 37.4489H141.618V38.7744H144.852L144.508 39.3742H141.618V40.8025H145V40.7992Z" fill="#231815"/>
<path d="M56.5768 33.6215L58.8767 27.5275H56.9246V25.4663H67.6461V23.2295H58.3124V6.61096H63.1745V21.1684H72.5082V33.7077H67.6461V27.5242H64.1292L61.8294 33.6182H56.5768V33.6215ZM78.0626 8.67213H69.1651V10.6007H79.2371V6.61096H83.4922L83.5349 19.9853H64.9559L64.9133 8.67213V6.61096H79.2371L78.0659 8.67213H78.0626ZM69.1651 14.2857H79.2371V12.6619H69.1651V14.2857ZM69.1651 17.9242H79.2371V16.3468H69.1651V17.9242ZM81.842 25.4663H91.435V33.7077H86.5729V27.5242H81.842V33.7077H76.9799V21.1684H85.359V6.61096H90.2211V23.2295H81.842V25.4663Z" fill="#231815"/>
<path d="M116.306 22.6165L107.189 24.3695V22.2222L116.306 20.4692L125.466 22.2222V24.3695L116.306 22.6165ZM124.164 31.5604H125.899L124.64 33.6215H107.189V31.5604H108.534L107.796 29.9366H112.268L113.049 31.5604H113.787V29.3667H108.534V27.3055H113.787V26.4273H108.534V24.3662H124.118L122.858 26.4273H118.865V27.3055H124.118L122.858 29.3667H118.865V31.5604H119.561L120.473 29.9366H125.03L124.161 31.5604H124.164ZM143.176 19.8959H107.448V17.8347H112.484L111.661 16.5192H117.045L117.914 17.8347H123.209V15.8166H109.666V13.7555H123.209V12.6155H111.316V10.5544H140.315L139.013 12.6155H128.248V13.7555H142.313L141.053 15.8166H128.248V17.8347H133.717L134.587 16.5192H140.013L139.144 17.8347H144.439L143.179 19.8959H143.176ZM125.942 8.80138L107.885 10.6869V8.53959L125.942 6.65405L144.042 8.53959V10.6869L125.942 8.80138ZM135.404 20.4659L144.564 22.2188V24.3662L135.404 22.6132L126.244 24.3662V22.2188L135.404 20.4659ZM144.997 31.5604L143.737 33.6215H126.244V31.5604H127.851L127.113 29.9366H131.585L132.366 31.5604H132.887V29.3667H127.635V27.3055H132.887V26.4273H127.635V24.3662H143.219L141.916 26.4273H137.966V27.3055H143.219L141.916 29.3667H137.966V31.5604H138.399L139.311 29.9366H143.826L142.956 31.5604H144.997Z" fill="#231815"/>
<path d="M99.6172 9.56683H98.9873V30.7551H99.6172V9.56683Z" fill="#231815"/>
</g>
<defs>
<clipPath id="clip0_11_37">
<rect width="145" height="48" fill="white"/>
</clipPath>
</defs>
</svg>
