<svg width="99" height="237" viewBox="0 0 99 237" fill="none" xmlns="http://www.w3.org/2000/svg">
<g clip-path="url(#clip0_14_6195)">
<path d="M55.6262 59.0931L77.2677 71.0673L99 36.6474L72.7151 27.4576L55.6262 59.0931Z" fill="#292C47"/>
<path d="M56.9993 58.0589L77.2355 69.2553L97.5625 37.0687L72.9787 28.4741L56.9993 58.0589Z" fill="#E2D2CA"/>
<path d="M49.5864 52.0394C49.5864 52.0394 53.3543 50.2274 55.0055 49.2786C56.6597 48.3299 60.9107 47.0305 61.2561 46.7211C61.5987 46.4118 73.8628 45.6516 74.6064 45.0063C75.3501 44.3611 76.0732 46.5208 72.8937 47.222C69.7143 47.9233 65.2905 49.6351 65.0504 50.8874C64.8074 52.1366 68.3148 52.4342 68.6691 53.4625C69.0233 54.4908 68.5695 54.261 68.066 54.482C67.5624 54.703 63.894 52.6582 62.2808 53.2386C60.6677 53.819 58.2026 53.0147 56.9642 53.4419C55.7257 53.8691 49.7152 55.9051 49.7152 55.9051L49.5805 52.0424L49.5864 52.0394Z" fill="#EEA886"/>
<path d="M78.3217 66.7479C78.3217 66.7479 81.4865 63.881 83.0177 62.6818C84.5489 61.4826 87.4239 57.9558 87.8455 57.7495C88.27 57.5433 93.7565 46.2085 94.6524 45.7547C95.5482 45.301 93.8063 43.7747 91.912 46.5149C90.0178 49.258 86.692 52.7849 85.4272 52.5285C84.1624 52.2722 85.2515 48.8308 84.4259 48.0912C83.6003 47.3517 83.6384 47.8761 83.2373 48.2651C82.8362 48.6569 83.3222 52.9322 82.1511 54.2345C80.98 55.5397 80.7722 58.1886 79.8909 59.1962C79.0097 60.2039 74.7645 65.1126 74.7645 65.1126L78.3275 66.7449L78.3217 66.7479Z" fill="#EEA886"/>
<path d="M10.1708 219.952C10.1708 219.952 9.48574 224.734 9.40084 225.453C9.31593 226.172 1.7859 225.029 1.7859 225.029L1.17694 219.336C1.17694 219.336 9.23103 219.277 10.1708 219.952Z" fill="#424773"/>
<path d="M9.48281 224.843C9.48281 224.843 11.8689 227.725 14.1759 228.98C16.4829 230.235 20.1103 230.733 21.4746 232.032C22.4584 232.969 25.0611 237.012 15.4787 236.929C5.89638 236.847 1.27648 237.501 0.248859 235.951C-0.778762 234.401 1.7332 224.519 1.7332 224.519C1.7332 224.519 4.00216 225.341 9.48281 224.843Z" fill="#292C47"/>
<path d="M64.1194 219.952C64.1194 219.952 63.4344 224.734 63.3494 225.453C63.2645 226.172 55.7345 225.029 55.7345 225.029L55.1255 219.336C55.1255 219.336 63.1796 219.277 64.1194 219.952Z" fill="#424773"/>
<path d="M63.4285 224.843C63.4285 224.843 65.8146 227.725 68.1216 228.98C70.4286 230.235 78.9189 231.266 80.2833 232.566C81.267 233.506 82.9065 237.283 69.4215 236.929C59.8421 236.679 55.2193 237.501 54.1916 235.951C53.164 234.401 55.676 224.519 55.676 224.519C55.676 224.519 57.8132 225.397 63.4256 224.843H63.4285Z" fill="#292C47"/>
<path d="M16.4068 97.0811C16.4068 97.0811 9.33058 108.392 9.86049 118.619C10.3875 128.846 7.29583 140.007 6.23308 150.691C5.04736 162.6 0.199098 190.792 0.0234361 197.162C-0.152226 203.532 0.775854 223.871 0.775854 223.871L10.4812 224.095C10.4812 224.095 18.6319 174.81 20.7427 169.781C22.8536 164.751 33.323 128.899 33.6744 124.877C34.0257 120.856 16.4039 97.0841 16.4039 97.0841L16.4068 97.0811Z" fill="#292C47"/>
<path d="M53.65 98.6162C53.65 98.6162 58.9814 126.642 59.684 132.901C60.3867 139.159 60.858 163.187 61.2093 167.099C61.5607 171.012 63.5544 218.284 65.4311 224.098H53.0235C53.0235 224.098 43.4997 189.731 43.4997 173.47C43.4997 157.208 36.1395 138.122 31.3908 127.394C26.642 116.666 15.7686 116.412 12.8467 96.5066C12.8467 96.5066 49.6976 92.305 53.65 98.6191V98.6162Z" fill="#292C47"/>
<path d="M28.2113 1.97704C28.2113 1.97704 37.7058 -1.59105 42.0856 5.68362C46.4654 12.9583 46.0409 27.5224 41.2571 29.3138C36.4703 31.1052 29.2799 30.1682 26.8294 25.6161C24.3789 21.0639 22.1656 14.4845 22.2739 10.0856C22.3793 5.68657 25.7198 3.24989 28.2142 1.97999L28.2113 1.97704Z" fill="#EEA886"/>
<path d="M40.2265 29.6438C40.2265 29.6438 39.8313 32.2248 40.4842 33.4947C41.137 34.7646 28.182 34.8 28.182 34.8C28.182 34.8 27.1309 27.8877 25.1372 22.045C23.1434 16.2023 40.2265 29.6438 40.2265 29.6438Z" fill="#EEA886"/>
<path d="M25.1343 22.045C25.1343 22.045 26.0272 23.53 29.678 22.9525C33.3289 22.375 37.7819 17.4899 39.3043 16.9536C40.8296 16.4174 40.8413 15.5158 40.8413 15.5158L41.7958 16.9183L43.4148 17.0214C43.4148 17.0214 41.9392 12.6489 44.1643 10.8663C46.3923 9.08376 41.8514 -3.2823 30.1465 0.833826C30.1465 0.833826 21.1555 3.32943 21.4834 8.47386C21.8113 13.6183 23.12 19.4816 25.1313 22.045H25.1343Z" fill="#3A3F47"/>
<path d="M41.2512 33.3415C41.2512 33.3415 41.2102 30.9137 40.1153 30.6809C39.0203 30.4481 28.0414 29.3845 26.7006 29.9178V32.7463C26.7006 32.7463 29.2857 34.3492 41.2512 33.3415Z" fill="#E2D2CA"/>
<path d="M40.6042 13.6448C40.3992 12.7815 38.2181 10.3154 37.3837 12.9553C36.5493 15.5953 38.6456 19.1487 39.8137 18.8452C40.9848 18.5417 41.1224 15.834 40.6042 13.6448Z" fill="#EEA886"/>
<path d="M84.827 62.0366C84.827 62.0366 84.8153 62.0366 84.8094 62.0366C84.8856 62.069 84.8944 62.0719 84.827 62.0366Z" fill="#323657"/>
<path d="M8.4259 124.032C8.4259 124.032 14.2491 125.758 24.1798 126.86C34.1106 127.962 58.9228 126.463 59.0809 125.281C59.239 124.1 53.7437 81.3149 54.0569 79.111C54.3702 76.9071 54.5371 69.0579 54.5371 69.0579C54.6601 71.2087 56.8383 79.9949 59.4644 84.7858C60.413 86.5153 63.6012 91.9396 65.1353 90.708C72.5688 84.7357 84.0805 62.2281 84.8095 62.0366C84.1946 61.7684 79.3552 59.5262 78.6759 59.2964C78.0816 59.0961 72.7181 64.8091 69.4683 68.3537C68.0191 69.9329 66.9915 71.0791 66.9915 71.0791C66.0546 68.9547 62.6351 55.5692 61.5753 50.9375C59.1804 40.4895 59.5493 40.0564 59.5493 40.0564C52.2857 37.8436 41.2571 33.3415 41.2571 33.3415L26.7064 32.7464C26.7064 32.7464 13.3532 35.7045 8.09214 38.097C7.59443 38.3239 7.59151 50.086 6.22134 53.1708L10.5807 62.4284C10.5807 62.4284 13.0985 80.7669 13.6226 88.9225C13.8626 92.6674 8.42883 124.032 8.42883 124.032H8.4259Z" fill="#323657"/>
<path d="M5.61532 68.442C5.99592 69.6766 7.72034 70.7196 8.84164 71.1763C9.55893 71.468 10.364 71.5623 11.1721 71.412L11.743 71.306L21.7147 69.4438C21.7147 69.4438 23.8959 44.1548 8.09215 38.097C7.67349 38.2355 2.12844 57.119 5.61825 68.442H5.61532Z" fill="#323657"/>
<path d="M8.83871 71.1734C9.556 71.4651 10.3611 71.5593 11.1692 71.4091L11.7401 71.303L10.7564 58.3801L8.84164 71.1734H8.83871Z" fill="#252840"/>
<path d="M66.9886 71.0761L68.2065 76.2706C68.2065 76.2706 69.5298 71.0585 69.4654 68.3507C68.0162 69.93 66.9886 71.0761 66.9886 71.0761Z" fill="#252840"/>
<path d="M25.5061 2.83444C25.5061 2.83444 13.0605 1.3907 25.2924 22.3102L25.5061 2.83444Z" fill="#3A3F47"/>
<path d="M88.9961 34.8L90.2608 32.6138L80.2979 29.1517L79.0331 31.3291L88.9961 34.8Z" fill="#292C47"/>
</g>
<defs>
<clipPath id="clip0_14_6195">
<rect width="99" height="237" fill="white"/>
</clipPath>
</defs>
</svg>
