<svg width="108" height="255" viewBox="0 0 108 255" fill="none" xmlns="http://www.w3.org/2000/svg">
<g clip-path="url(#clip0_14_6165)">
<path d="M9.9186 22.4642C9.9186 22.4642 11.3454 18.5333 11.5468 17.926C11.7453 17.3188 11.2735 15.5988 10.5572 13.6726C9.84381 11.7463 8.02291 9.46564 7.68059 9.38429C7.33827 9.30294 7.02759 9.0618 6.19337 9.40172C5.35628 9.74165 4.83273 10.4912 4.83273 10.4912C4.83273 10.4912 3.60729 10.4186 3.03196 11.3948C3.03196 11.3948 1.87556 11.3803 1.40092 12.5947C1.40092 12.5947 0.270403 12.6121 0 13.5244C0 13.5244 0.471766 15.2502 0.463137 15.9388C0.454507 16.6273 2.22651 20.9708 3.91509 24.1638C3.91509 24.1638 5.97763 25.8112 9.9186 22.4642Z" fill="#EEA886"/>
<path d="M7.24622 17.1677C7.24622 17.1677 5.82229 18.7018 5.63819 19.3351C5.45409 19.9714 1.2312 17.897 1.2312 17.897C1.2312 17.897 5.3534 15.4652 7.24622 17.1648V17.1677Z" fill="#CF8C6C"/>
<path d="M7.88771 9.88401C7.88771 9.88401 9.57916 14.8144 8.82836 15.1863C8.07469 15.5611 7.57415 15.2357 7.57415 15.2357L7.35841 17.5832C7.35841 17.5832 6.34871 19.0562 5.05423 17.5135C5.05423 17.5135 4.25165 18.9894 3.17867 17.3479C3.17867 17.3479 2.21788 18.0829 1.5879 17.4118C0.957916 16.7406 0 13.5244 0 13.5244C0 13.5244 0.0690391 12.708 1.36927 12.5482C1.36927 12.5482 1.75762 11.3396 3.0032 11.3309C3.0032 11.3309 3.48935 10.4273 4.83561 10.4273C4.83561 10.4273 6.00927 8.55045 7.68346 9.38138C7.68346 9.38138 7.82154 9.67192 7.89058 9.8782L7.88771 9.88401Z" fill="#DB9C7C"/>
<path d="M11.5094 17.7662C11.5094 17.7662 8.94917 15.2909 6.96142 14.5587C6.51267 14.3931 6.04665 14.3147 5.72447 14.6749C5.40229 15.0352 5.50873 15.9591 6.56445 17.0893C7.62017 18.2195 8.47165 20.1661 8.47165 20.1661C8.47165 20.1661 9.8927 21.0057 11.5065 17.7662H11.5094Z" fill="#EEA886"/>
<path d="M99.232 13.7045C99.232 13.7045 96.6575 10.4215 96.2806 9.91016C95.9038 9.39591 95.8204 7.61202 95.9009 5.55793C95.9815 3.50094 97.0027 0.761196 97.3047 0.575253C97.6039 0.392216 97.8225 0.0639111 98.7229 0.122018C99.6233 0.180125 100.354 0.726332 100.354 0.726332C100.354 0.726332 101.496 0.270191 102.345 1.01396C102.345 1.01396 103.438 0.63336 104.266 1.63861C104.266 1.63861 105.345 1.29869 105.883 2.07732C105.883 2.07732 105.969 3.86411 106.191 4.51782C106.412 5.17152 106.076 9.85495 105.46 13.4227C105.46 13.4227 104.01 15.6395 99.232 13.7045Z" fill="#EEA886"/>
<path d="M100.127 7.82703C100.127 7.82703 101.956 8.83228 102.327 9.37848C102.698 9.92469 106.067 6.6184 106.067 6.6184C106.067 6.6184 101.398 5.61315 100.127 7.82703Z" fill="#CF8C6C"/>
<path d="M97.2616 1.10985C97.2616 1.10985 97.181 6.32786 98.0124 6.44408C98.8437 6.56029 99.2177 6.09543 99.2177 6.09543L100.15 8.25702C100.15 8.25702 101.568 9.33781 102.319 7.46386C102.319 7.46386 103.538 8.61147 104.05 6.71427C104.05 6.71427 105.19 7.1094 105.581 6.27266C105.972 5.43592 105.886 2.07733 105.886 2.07733C105.886 2.07733 105.592 1.26383 104.309 1.52531C104.309 1.52531 103.564 0.540397 102.379 0.923904C102.379 0.923904 101.634 0.19466 100.357 0.621747C100.357 0.621747 98.6395 -0.746674 97.3076 0.572356C97.3076 0.572356 97.2673 0.891945 97.2644 1.10985H97.2616Z" fill="#DB9C7C"/>
<path d="M96.2634 9.74456C96.2634 9.74456 97.9289 6.58354 99.5887 5.2616C99.9656 4.96235 100.383 4.74154 100.8 4.97978C101.217 5.21802 101.401 6.13321 100.751 7.5394C100.098 8.94559 99.8937 11.0665 99.8937 11.0665C99.8937 11.0665 98.8034 12.3129 96.2662 9.74747L96.2634 9.74456Z" fill="#EEA886"/>
<path d="M37.12 239.651C37.12 239.651 35.3652 242.96 34.2175 244.273C33.0697 245.587 28.6771 247.934 28.6512 251.836C28.6253 256.066 36.0585 254.893 38.9639 254.739C41.8693 254.585 42.0908 252.324 43.3133 249.93C44.5359 247.536 45.77 247.94 46.0001 246.008C46.2302 244.076 44.8149 239.651 44.8149 239.651H37.1171H37.12Z" fill="#202338"/>
<path d="M93.4702 240.787C93.4702 240.787 97.0516 244.825 100.688 245.674C104.324 246.519 106.867 247.6 106.895 249.916C106.921 252.234 96.4302 253.762 92.2678 251.424C86.0571 247.937 85.4243 248.989 84.7368 247.246C84.0492 245.502 85.5652 240.842 85.5192 240.287C85.4645 239.602 93.4673 240.787 93.4673 240.787H93.4702Z" fill="#202338"/>
<path d="M93.0674 238.855C93.0674 238.855 93.5392 240.746 93.4702 240.787C93.4011 240.828 85.2747 241.804 85.522 240.287C85.7205 239.055 86.0053 237.719 86.0053 237.719L93.0674 238.858V238.855Z" fill="#81807E"/>
<path d="M44.7171 238.373C44.7171 238.373 45.0566 240.177 44.9904 240.22C44.9242 240.264 36.7517 241.737 36.7978 240.238C36.8352 239.047 37.5514 237.661 37.5514 237.661L44.7171 238.373Z" fill="#81807E"/>
<path d="M85.6803 125.581C85.6803 125.581 88.6346 154.562 90.1707 164.481C91.9686 176.079 92.5755 185.664 93.0761 191.669C93.706 199.22 93.8269 236.365 94.2699 238.573C94.71 240.781 84.4836 239.183 84.4836 239.183C84.4836 239.183 79.4524 190.649 77.5739 182.607C75.8249 175.12 69.341 142.88 67.7445 144.925C66.1509 146.97 55.5304 182.154 54.3509 188.058C53.1686 193.964 48.0655 239.285 48.0655 239.285C48.0655 239.285 37.3817 240.197 35.2185 238.347C35.2185 238.347 38.3224 198.055 39.0761 186.983C39.3637 182.764 42.7869 138.867 49.4319 120.195C52.9443 110.328 85.6803 125.578 85.6803 125.578V125.581Z" fill="#292C47"/>
<path d="M35.558 62.5552C34.019 62.1542 44.6424 57.6974 48.7272 55.7973C50.6142 54.917 52.0583 54.2923 52.3603 54.2546C53.3154 54.1267 65.2189 54.4492 65.2189 54.4492C65.2189 54.4492 66.9535 54.917 68.7427 55.5998C71.7948 56.7648 76.5528 58.5865 79.9702 59.9491C81.0748 60.3878 82.4585 60.9892 83.612 61.5063C83.7529 65.5767 83.8134 69.9435 83.7903 74.6182C83.7903 74.6182 83.868 84.8247 84.5124 95.0922C84.1413 97.4543 84.6016 102.847 84.6016 102.847C84.8058 107.977 85.7292 113.198 86.0744 116.124C86.6238 120.729 87.6997 127.263 87.6997 127.263L82.1104 130.035L56.9025 131.552L48.871 129.968C48.871 129.968 47.9447 109.474 47.4212 103.535C46.9206 97.8116 45.2522 85.1821 44.9588 84.3366C44.9588 84.3366 44.4324 64.862 35.5637 62.5552H35.558Z" fill="#DBD8E3"/>
<path d="M86.7878 125.145C86.7878 125.145 69.5827 127.838 54.3251 127.406L54.6674 132.429C54.6674 132.429 77.387 133.036 87.8234 129.16L86.7878 125.148V125.145Z" fill="#1D2033"/>
<path d="M85.4128 104.395C85.3236 93.3694 84.1096 74.7489 84.1096 74.7489C84.1327 69.9871 82.6224 58.2581 82.4728 54.1209C82.4728 54.1209 72.3989 56.6341 67.1778 55.0419C67.1778 55.0419 70.4485 61.5267 73.5783 76.3062C74.7807 81.9833 76.944 91.5332 78.7073 101.307C80.0996 109.015 82.6109 116.848 83.6408 122.748C84.708 128.861 86.4627 144.039 86.4627 144.039L92.1038 141.764C93.0991 141.395 93.614 140.494 93.2803 139.628C93.2803 139.628 86.805 111.432 85.4156 104.389L85.4128 104.395Z" fill="#323657"/>
<path d="M13.4799 57.343C11.5928 55.2802 1.87844 25.8954 2.24952 24.2336C2.54294 22.9174 10.5026 22.0691 10.5026 22.0691C10.5026 22.0691 17.697 38.3216 21.4826 49.3794C22.8663 53.4178 34.0506 56.605 32.4483 56.2912C31.128 56.0326 42.7927 58.2349 46.6473 56.3813C47.3521 56.0414 50.4646 55.0187 51.0975 54.7252C52.0036 55.6114 57.5871 61.9509 61.298 86.2135C61.9222 90.3013 61.4303 99.0871 61.1858 106.249C60.9269 113.887 60.4724 119.866 60.2739 126.252C59.8856 138.835 59.736 146.837 59.736 146.837L47.1392 142.287C45.0767 141.418 41.9038 139.349 42.5079 137.179C44.8063 128.928 47.4499 114.921 46.9724 107.855C46.9724 107.855 42.9192 79.1593 41.573 75.4317C41.573 75.4317 17.7229 61.9915 13.4741 57.3459L13.4799 57.343Z" fill="#323657"/>
<path d="M53.0277 23.7542C53.0277 23.7542 63.5993 15.7819 67.5115 31.9327C71.4237 48.0836 69.1167 50.5299 60.6594 50.6345C52.2021 50.7362 48.6092 40.8783 46.1813 36.346C43.7506 31.8136 49.3514 25.6107 53.0277 23.7571V23.7542Z" fill="#EEA886"/>
<path d="M50.1396 43.7517C50.1396 43.7517 48.8623 39.507 50.4991 38.5918C52.1359 37.6766 53.7584 39.8702 53.7584 39.8702L55.1478 39.3734C55.1478 39.3734 52.6278 35.4366 54.0086 33.952C55.3894 32.4644 65.6359 30.3551 66.4644 28.5306C67.2929 26.706 64.6205 18.8122 59.9834 18.5914C57.0118 18.449 49.0608 19.062 45.5744 24.7246C45.5744 24.7246 41.4838 26.0291 42.3094 29.4632C43.1321 32.8944 48.0396 41.8749 50.1396 43.7575V43.7517Z" fill="#D88A51"/>
<path d="M51.9547 36.1949C51.0198 34.9485 48.1116 36.0061 49.0666 38.1415C50.0188 40.2769 53.4678 42.9731 54.2618 42.0376C55.0557 41.102 53.2435 37.9149 51.9547 36.192V36.1949Z" fill="#EEA886"/>
<path d="M53.5369 55.4487C53.5369 55.4487 54.5638 54.4667 52.4351 46.2794C51.8655 44.0887 64.2063 48.1214 64.2063 48.1214C64.2063 48.1214 64.2235 49.1063 64.2811 50.3498C64.3041 50.8001 64.3328 51.2853 64.3674 51.7705C64.3961 52.154 64.4278 52.5346 64.4652 52.8978C64.5083 53.3132 64.5572 53.7084 64.6176 54.0541C64.701 54.5451 65.0491 55.3906 65.1671 55.623C65.797 56.852 58.1912 58.3482 53.534 55.4487H53.5369Z" fill="#EEA987"/>
<path d="M62.0574 59.1704L64.445 61.9828C64.445 61.9828 63.2829 63.8045 60.9211 62.683L62.0574 59.1704Z" fill="#FA6F41"/>
<path d="M63.8294 62.1455C63.8294 62.1455 74.0846 93.0963 74.0875 117.745L71.6913 122.789L68.7916 117.882C68.7916 117.882 65.098 74.0488 62.0574 62.192L63.8294 62.1455Z" fill="#FA6F41"/>
<path d="M64.2091 56.2418L62.0574 59.1704C62.0574 59.1704 58.2516 58.6969 57.0147 56.7939C55.7777 54.8908 64.2091 56.2447 64.2091 56.2447V56.2418Z" fill="#EEA987"/>
<path d="M64.5802 53.7868C64.5802 53.7868 64.4537 55.9135 62.0574 59.1704L65.1642 62.8312L66.1566 54.7223L64.5802 53.7897V53.7868Z" fill="#C4C1CC"/>
<path d="M53.6778 52.3777C53.6778 52.3777 58.1567 57.9182 62.0574 59.1704L60.5932 63.7028L51.854 54.4144L53.6807 52.3777H53.6778Z" fill="#C4C1CC"/>
<path d="M107.203 43.9841C109.355 38.9288 106.475 11.8393 106.475 11.8393L97.4974 12.9695C97.4974 12.9695 97.3248 19.5123 97.8311 31.3052C97.975 34.6521 97.7189 39.1293 97.4687 39.6523C97.2184 40.1781 86.7187 52.462 82.8382 53.8798C81.3193 54.4347 77.3927 57.0902 74.939 59.9781C72.4881 62.8631 74.0242 66.4774 74.0242 66.4774C80.1082 73.3515 89.791 63.1885 89.791 63.1885C89.791 63.1885 104.188 51.0732 107.203 43.987V43.9841Z" fill="#323657"/>
<path d="M94.2209 58.1565C94.2209 58.1565 83.6695 71.065 84.2304 78.1918C84.5123 81.7596 79.2682 67.227 79.2682 67.227L94.2209 58.1594V58.1565Z" fill="#323657"/>
<path d="M64.468 52.8978C57.2132 53.046 54.279 48.4613 54.279 48.4613C58.4588 51.8925 64.281 50.3498 64.281 50.3498C64.3041 50.8001 64.3328 51.2853 64.3673 51.7705C64.3961 52.154 64.4278 52.5346 64.4652 52.8978H64.468Z" fill="#A77860"/>
</g>
<defs>
<clipPath id="clip0_14_6165">
<rect width="108" height="255" fill="white"/>
</clipPath>
</defs>
</svg>
