<svg width="571" height="391" viewBox="0 0 571 391" fill="none" xmlns="http://www.w3.org/2000/svg">
<path d="M570.671 15.7694C570.671 7.05943 563.612 0 554.902 0H15.7721C7.06212 0 0.00268555 7.05943 0.00268555 15.7694V36.6717H570.671V15.7694Z" fill="#E3E3E3"/>
<path d="M0 36.6717V375.159C0 383.869 7.05943 390.929 15.7694 390.929H554.899C563.609 390.929 570.668 383.869 570.668 375.159V36.6717H0Z" fill="white"/>
<path d="M27.3501 21.8177C29.2723 19.8955 29.2723 16.7791 27.3501 14.8569C25.4279 12.9347 22.3115 12.9347 20.3893 14.8569C18.4672 16.7791 18.4672 19.8955 20.3893 21.8177C22.3115 23.7398 25.4279 23.7398 27.3501 21.8177Z" fill="#EB3449"/>
<path d="M46.881 21.8175C48.8031 19.8953 48.8031 16.7789 46.881 14.8567C44.9588 12.9345 41.8424 12.9345 39.9202 14.8567C37.998 16.7789 37.998 19.8953 39.9202 21.8175C41.8424 23.7396 44.9588 23.7396 46.881 21.8175Z" fill="#FDB202"/>
<path d="M64.9443 22.837C67.4245 21.7244 68.5332 18.8118 67.4206 16.3316C66.308 13.8514 63.3955 12.7427 60.9153 13.8552C58.435 14.9678 57.3263 17.8804 58.4389 20.3606C59.5515 22.8409 62.464 23.9496 64.9443 22.837Z" fill="#AEAEAE"/>
<path d="M530.22 9.93604H146.69C142.051 9.93604 138.291 13.6961 138.291 18.3343V18.3373C138.291 22.9755 142.051 26.7356 146.69 26.7356H530.22C534.859 26.7356 538.619 22.9755 538.619 18.3373V18.3343C538.619 13.6961 534.859 9.93604 530.22 9.93604Z" fill="white"/>
<path d="M119.547 26.7356C114.907 26.7356 111.149 22.9743 111.149 18.3373C111.149 13.6973 114.91 9.93903 119.547 9.93903C124.187 9.93903 127.946 13.7003 127.946 18.3373C127.946 22.9773 124.184 26.7356 119.547 26.7356Z" fill="white"/>
<path d="M92.6662 26.7356C88.0262 26.7356 84.2679 22.9743 84.2679 18.3373C84.2679 13.6973 88.0292 9.93903 92.6662 9.93903C97.3062 9.93903 101.065 13.7003 101.065 18.3373C101.065 22.9773 97.3033 26.7356 92.6662 26.7356Z" fill="white"/>
<path fill-rule="evenodd" clip-rule="evenodd" d="M89.2064 18.3373C89.2064 18.0612 89.4302 17.8373 89.7064 17.8373H96.4066C96.6827 17.8373 96.9066 18.0612 96.9066 18.3373C96.9066 18.6135 96.6827 18.8373 96.4066 18.8373H89.7064C89.4302 18.8373 89.2064 18.6135 89.2064 18.3373Z" fill="#B5B5B5"/>
<path fill-rule="evenodd" clip-rule="evenodd" d="M92.9498 14.7415C93.1339 14.9474 93.1163 15.2635 92.9104 15.4475L89.6789 18.3372L92.9102 21.2241C93.1162 21.4081 93.134 21.7241 92.95 21.9301C92.766 22.136 92.4499 22.1538 92.244 21.9698L88.5955 18.7102C88.4894 18.6154 88.4287 18.4798 88.4286 18.3375C88.4286 18.1951 88.4893 18.0595 88.5954 17.9647L92.2438 14.7021C92.4497 14.518 92.7658 14.5357 92.9498 14.7415Z" fill="#B5B5B5"/>
<path fill-rule="evenodd" clip-rule="evenodd" d="M115.31 18.3373C115.31 18.0612 115.534 17.8373 115.81 17.8373H122.51C122.786 17.8373 123.01 18.0612 123.01 18.3373C123.01 18.6135 122.786 18.8373 122.51 18.8373H115.81C115.534 18.8373 115.31 18.6135 115.31 18.3373Z" fill="#B5B5B5"/>
<path fill-rule="evenodd" clip-rule="evenodd" d="M119.267 14.7414C119.451 14.5356 119.767 14.5181 119.973 14.7023L123.618 17.9648C123.724 18.0597 123.785 18.1952 123.785 18.3375C123.785 18.4798 123.724 18.6153 123.618 18.7101L119.973 21.9697C119.767 22.1537 119.451 22.1361 119.267 21.9302C119.082 21.7244 119.1 21.4083 119.306 21.2242L122.535 18.3372L119.306 15.4474C119.1 15.2633 119.083 14.9472 119.267 14.7414Z" fill="#B5B5B5"/>
<path fill-rule="evenodd" clip-rule="evenodd" d="M525.903 16.6889C525.623 17.8738 526.357 19.061 527.542 19.3407C528.727 19.6204 529.914 18.8865 530.194 17.7016C530.473 16.5167 529.739 15.3294 528.555 15.0497C527.37 14.7701 526.182 15.5039 525.903 16.6889ZM527.312 20.314C525.59 19.9074 524.523 18.1816 524.929 16.4591C525.336 14.7367 527.062 13.67 528.784 14.0765C530.507 14.483 531.573 16.2089 531.167 17.9313C530.76 19.6538 529.035 20.7205 527.312 20.314Z" fill="#B5B5B5"/>
<path fill-rule="evenodd" clip-rule="evenodd" d="M529.445 18.9546C529.641 18.7593 529.957 18.7593 530.153 18.9546L533.02 21.8223C533.215 22.0175 533.215 22.3341 533.02 22.5294C532.825 22.7246 532.508 22.7246 532.313 22.5294L529.445 19.6617C529.25 19.4664 529.25 19.1498 529.445 18.9546Z" fill="#B5B5B5"/>
<path d="M551.111 11.1681C551.111 12.1032 550.354 12.8602 549.419 12.8602C548.484 12.8602 547.727 12.1032 547.727 11.1681C547.727 10.233 548.484 9.47595 549.419 9.47595C550.354 9.47595 551.111 10.233 551.111 11.1681Z" fill="white"/>
<path d="M551.111 18.3373C551.111 19.2725 550.354 20.0295 549.419 20.0295C548.484 20.0295 547.727 19.2725 547.727 18.3373C547.727 17.4022 548.484 16.6452 549.419 16.6452C550.354 16.6452 551.111 17.4022 551.111 18.3373Z" fill="white"/>
<path d="M551.111 25.5037C551.111 26.4388 550.354 27.1958 549.419 27.1958C548.484 27.1958 547.727 26.4388 547.727 25.5037C547.727 24.5685 548.484 23.8115 549.419 23.8115C550.354 23.8115 551.111 24.5685 551.111 25.5037Z" fill="white"/>
</svg>
