<svg width="1440" height="1505" viewBox="0 0 1440 1505" fill="none" xmlns="http://www.w3.org/2000/svg">
<path fill-rule="evenodd" clip-rule="evenodd" d="M102.5 390C185.067 390 252 323.067 252 240.5C252 157.933 185.067 91 102.5 91C19.9334 91 -47 157.933 -47 240.5C-47 323.067 19.9334 390 102.5 390ZM102.5 470C229.249 470 332 367.249 332 240.5C332 113.751 229.249 11 102.5 11C-24.2494 11 -127 113.751 -127 240.5C-127 367.249 -24.2494 470 102.5 470Z" fill="#FFF0F0"/>
<path fill-rule="evenodd" clip-rule="evenodd" d="M1255.5 1251C1338.07 1251 1405 1184.07 1405 1101.5C1405 1018.93 1338.07 952 1255.5 952C1172.93 952 1106 1018.93 1106 1101.5C1106 1184.07 1172.93 1251 1255.5 1251ZM1255.5 1331C1382.25 1331 1485 1228.25 1485 1101.5C1485 974.751 1382.25 872 1255.5 872C1128.75 872 1026 974.751 1026 1101.5C1026 1228.25 1128.75 1331 1255.5 1331Z" fill="#FFF0F0"/>
</svg>
