<svg width="134" height="193" viewBox="0 0 134 193" fill="none" xmlns="http://www.w3.org/2000/svg">
<g clip-path="url(#clip0_14_6127)">
<path d="M47.5849 175.37H134.003V164.861H47.5849V175.37Z" fill="url(#paint0_linear_14_6127)"/>
<path d="M44.4296 164.858H130.848V154.35H44.4296V164.858Z" fill="url(#paint1_linear_14_6127)"/>
<path d="M46.1946 154.35H132.613V143.841H46.1946V154.35Z" fill="url(#paint2_linear_14_6127)"/>
<path d="M44.4296 143.841H130.848V133.333H44.4296V143.841Z" fill="url(#paint3_linear_14_6127)"/>
<path d="M42.9544 133.33H129.372V122.821L42.9544 122.821V133.33Z" fill="url(#paint4_linear_14_6127)"/>
<path d="M40.7386 185.444H127.157V174.936H40.7386V185.444Z" fill="url(#paint5_linear_14_6127)"/>
<path d="M14.9396 179.483C14.9396 179.483 10.0163 187.84 7.94106 189.206C5.1194 191.059 6.88733 192.933 8.22792 192.936C9.5685 192.936 16.409 193.428 17.9164 191.713C19.4239 190.001 20.1732 184.864 21.5752 183.521C22.9773 182.178 24.4262 176.838 20.8932 175.54C17.7701 174.393 14.9426 179.483 14.9426 179.483H14.9396Z" fill="#484E7D"/>
<path d="M17.0705 175.806C17.0705 175.806 11.433 185.594 10.4613 187.039C9.48948 188.485 12.2907 188.482 14.0264 187.796C15.7621 187.109 20.1264 180.09 20.7557 178.812C21.505 177.287 20.8903 175.54 20.8903 175.54L17.0734 175.806H17.0705Z" fill="#202338"/>
<path d="M22.7812 181.072L21.4786 191.106L20.7908 191.138L21.0044 183.919L22.7812 181.072Z" fill="#484E7D"/>
<path d="M63.7451 179.483C63.7451 179.483 58.8218 187.84 56.7436 189.206C53.922 191.059 55.6899 192.933 57.0305 192.936C58.3711 192.936 65.2116 193.428 66.719 191.713C68.2264 190.001 68.9758 184.864 70.3778 183.521C71.7799 182.178 73.2756 176.701 69.6958 175.54C66.5551 174.522 63.7451 179.483 63.7451 179.483Z" fill="#484E7D"/>
<path d="M65.5804 175.827C65.5804 175.827 60.2385 185.594 59.2667 187.039C58.295 188.485 61.0961 188.482 62.8319 187.796C64.5676 187.109 68.9318 180.09 69.5611 178.812C70.3105 177.287 69.6958 175.54 69.6958 175.54L65.5833 175.827H65.5804Z" fill="#202338"/>
<path d="M71.5867 181.072L70.2871 191.106L69.5963 191.138L69.81 183.919L71.5867 181.072Z" fill="#484E7D"/>
<path d="M20.8874 175.537C20.8874 175.537 33.7751 148.157 35.5138 130.896C35.6338 129.709 35.9587 128.7 36.3919 127.853C37.0417 126.574 37.9462 125.653 38.7833 125.011C39.9805 124.094 41.04 123.751 41.04 123.751L85.5809 103.423C85.5809 103.423 75.866 96.0045 56.9836 96.4824C56.9836 96.4824 31.8345 106.762 25.7258 111.726C24.9003 112.395 24.4232 112.969 24.3998 113.409C24.3647 114.051 24.2183 116.066 23.9783 119.007C22.8456 132.893 19.6726 167.429 17.0676 175.806C17.0676 175.806 16.7514 177.566 20.8874 175.537Z" fill="#202338"/>
<path d="M93.9786 112.148C92.5999 124.208 75.4152 122.827 75.4152 122.827H54.5864C54.5864 122.827 60.0571 135.021 62.1704 145.307C64.4125 156.223 69.6958 175.537 69.6958 175.537C69.6958 175.537 69.3504 176.193 65.5833 175.824C65.5833 175.824 49.2329 143.181 42.9748 134.977C41.6284 133.212 37.7706 123.627 37.1061 117.91C36.8807 115.986 37.0212 114.5 37.7384 113.896C38.4613 113.289 40.121 112.145 42.3367 110.747C48.8611 106.627 60.1917 100.282 66.5024 98.8603C74.9557 96.9574 88.3294 93.3891 88.3294 93.3891C88.3294 93.3891 95.3601 100.086 93.9815 112.145L93.9786 112.148Z" fill="#202338"/>
<path d="M56.7583 122.83H75.4123C75.4123 122.83 92.597 124.211 93.9756 112.151C95.3543 100.092 88.3265 93.395 88.3265 93.395C88.3265 93.395 79.2468 95.8168 71.3203 97.7344C67.3513 96.89 62.5685 96.3387 56.9837 96.4824C56.9837 96.4824 26.4019 99.5933 24.394 113.483C24.394 113.483 38.4496 105.93 56.7554 122.83H56.7583Z" fill="#DBDBDB"/>
<path d="M70.3866 0.102624C70.3866 0.102624 78.5208 -1.16403 81.9396 5.22493C85.3584 11.6139 81.7435 15.5282 83.0724 17.7302C84.4013 19.9292 89.2367 22.9317 88.5723 26.4061C87.9079 29.8806 82.5309 33.7656 83.8773 36.8384C85.2238 39.9112 86.1341 41.9343 86.0199 42.1836C85.9087 42.4328 53.0936 48.0887 53.0936 48.0887C53.0936 48.0887 55.4967 43.4795 57.5427 41.603C59.5917 39.7265 61.7694 39.1342 59.2346 32.5019C56.7027 25.8696 54.5308 22.7293 55.5933 17.7536C56.6529 12.7779 56.2695 8.19805 61.2074 3.7765C64.1871 1.11125 67.7786 0.164197 70.3866 0.102624Z" fill="#282B45"/>
<path d="M85.5838 85.9886C85.3877 84.7278 83.3036 80.2007 82.0977 75.093C92.2487 58.5767 95.8753 47.3147 92.5062 41.861C88.786 35.8415 79.4604 34.5455 79.4604 34.5455L67.3044 35.0029C67.3044 35.0029 56.0792 38.4511 50.7637 44.3709C45.8345 49.8626 37.0417 77.2891 36.5207 78.503C33.8805 84.6457 27.3854 103.411 27.04 103.481C26.6946 103.552 32.1331 104.091 32.1331 104.091C32.1331 104.091 37.4017 92.6883 41.0371 83.4729C41.684 81.8338 43.7212 77.1719 45.8375 72.7796C46.2678 71.8824 46.7039 70.9969 47.1283 70.1525C48.5391 67.3582 49.6748 66.0036 49.7187 65.9127C49.7187 65.9127 51.1793 70.3988 53.6585 73.6446C53.6585 73.6446 54.484 79.1686 55.4499 81.5846C55.6723 82.1388 55.8099 83.1796 55.9036 84.4639C56.1173 87.4018 56.0968 91.624 56.2958 94.2394L56.0909 94.4827C51.2642 100.235 51.6272 98.9336 51.9696 99.1916C52.7043 99.7429 57.2705 103.241 57.812 102.607C58.5701 101.719 58.2247 102.449 63.1041 97.5819C64.5003 97.7021 66.0575 97.7989 67.6908 97.8546C75.6435 98.1244 85.4872 97.3943 88.3264 93.3891C88.3264 93.3891 86.5556 92.2221 85.5838 85.9856V85.9886ZM81.9601 60.9341C82.1679 60.6057 82.4109 60.3184 82.686 60.075C82.686 60.075 82.686 60.0809 82.6802 60.0838C82.6743 60.0867 82.6743 60.0926 82.6714 60.0985C82.5865 60.2157 82.2177 60.7171 81.6528 61.4883C81.7464 61.2918 81.846 61.1071 81.9572 60.9341H81.9601Z" fill="#EB4747"/>
<path d="M79.4575 23.2366C77.0661 29.8542 79.4575 34.5485 79.4575 34.5485C78.998 38.6006 67.6498 50.452 66.6136 49.1384C65.7794 48.0829 66.7366 39.5476 67.1405 36.2755C67.2371 35.4867 67.3015 35.0059 67.3015 35.0059C67.3425 34.4546 67.2927 33.9064 67.2049 33.4138C67.0059 32.3201 66.6136 31.4933 66.6136 31.4933C66.6136 31.4933 76.188 22.1459 78.9658 21.5682C79.6917 21.4187 79.9551 21.8673 79.4575 23.2366Z" fill="#EEA886"/>
<path d="M92.6819 53.2931C92.6819 53.2931 83.2509 72.1199 85.5457 85.795C86.7049 92.7088 75.8514 61.7228 75.8514 61.7228L92.6848 53.2902L92.6819 53.2931Z" fill="#EB4747"/>
<path d="M64.5384 5.1663C64.5384 5.1663 56.2402 12.1505 60.8913 26.0367C65.5423 39.923 75.3509 30.4113 76.2934 29.3499C77.7423 27.7109 79.841 19.5627 79.5102 15.6543C79.1999 11.9775 79.3287 -2.93206 64.5384 5.1663Z" fill="#EEA886"/>
<path d="M65.5043 7.94882C66.4116 7.55593 70.3251 13.3116 72.2131 14.6193C74.1039 15.927 78.4506 20.0436 79.2614 24.1719C80.0722 28.3003 81.2283 13.9097 79.4194 9.13044C77.6105 4.35118 75.1167 -2.67404 64.8281 4.38637C54.5396 11.4468 58.6199 21.3425 58.6199 21.3425C58.6199 21.3425 60.9264 9.92503 65.5043 7.94589V7.94882Z" fill="#282B45"/>
<path d="M74.6015 15.6015C74.6894 13.8804 78.2282 12.0039 78.4799 14.543C78.7316 17.0822 77.0339 20.2547 75.8543 20.2107C74.6718 20.1667 74.5225 17.1907 74.6015 15.6015Z" fill="#EEA886"/>
<path d="M82.686 60.075C82.686 60.075 82.6831 60.0809 82.6802 60.0838C82.6772 60.0867 82.6743 60.0926 82.6714 60.0985C82.5865 60.2216 82.1855 60.7963 81.5679 61.6818C78.7228 65.7544 71.2413 76.3949 68.4869 79.7257C68.4869 79.7286 68.484 79.7315 68.4811 79.7345V79.7403L57.5105 92.8027L57.0246 93.3803L56.5417 93.955L56.2987 94.2452C56.0997 91.6298 56.1202 87.4077 55.9065 84.4698C58.9184 82.8513 68.3172 76.9959 81.963 60.937C82.203 60.6556 82.446 60.3682 82.6889 60.0779L82.686 60.075Z" fill="#992E2E"/>
<path d="M78.3218 81.0246L67.6937 97.8575C66.0575 97.8018 64.5032 97.7021 63.107 97.5849C63.107 97.5849 75.5909 85.1207 76.4338 83.8657L78.3276 81.0216L78.3218 81.0246Z" fill="#992E2E"/>
<path d="M77.4437 27.101C77.4437 27.101 77.0163 34.2641 67.1405 36.2755C67.2371 35.4867 67.3015 35.0059 67.3015 35.0059C67.3425 34.4547 67.2927 33.9064 67.2049 33.4138C67.2078 33.4138 67.2137 33.4138 67.2225 33.4167C67.4391 33.4431 69.406 33.6513 71.7301 32.6778C71.7301 32.6778 71.733 32.6778 71.736 32.6749C72.5702 32.326 73.4512 31.8246 74.3147 31.1062C75.4357 30.1768 76.5217 28.8867 77.4408 27.101H77.4437Z" fill="#A77860"/>
<path d="M49.7158 65.9157C49.6719 66.0036 48.5362 67.3612 47.1254 70.1554C46.701 70.9999 46.2648 71.8883 45.8346 72.7826C45.1174 63.2211 49.9061 55.7883 49.9734 55.6798C48.9343 57.8027 49.7158 65.9157 49.7158 65.9157Z" fill="#992E2E"/>
<path d="M32.1301 104.094C32.1301 104.094 28.0323 104.78 27.0371 103.484L29.6187 96.8255L34.9518 97.8458L32.1301 104.094Z" fill="#E55353"/>
<path d="M69.9036 107.126L34.0327 103.238L50.2368 115.45L69.9036 107.126Z" fill="#026BBA"/>
<path d="M50.2368 115.45L69.9036 109.243V107.126L49.5753 113.166L50.2368 115.45Z" fill="#013963"/>
<path d="M46.1478 101.373C46.1478 101.373 44.5408 102.739 44.1486 103.223C43.7534 103.707 42.1348 105.548 41.7396 105.985C41.3445 106.425 42.6148 106.727 45.6794 104.273C48.744 101.819 46.1478 101.373 46.1478 101.373Z" fill="#EEA886"/>
<path d="M56.0851 97.6464C56.0851 97.6464 53.3044 98.3765 51.3579 98.7635C49.8534 99.0626 46.3205 100.863 45.5536 101.977C44.7867 103.091 42.9134 109.483 42.4275 110.02C41.9387 110.556 42.9222 110.967 43.8178 110.213C43.8178 110.213 45.1672 112.154 47.1956 110.427C49.2212 108.7 50.2164 106.129 51.3023 105.346C52.3882 104.56 58.8833 100.359 58.8833 100.359C58.8833 100.359 57.7008 96.4062 56.0851 97.6464Z" fill="#EEA886"/>
<path d="M50.2368 115.45L39.7785 79.4266L0 75.5387L10.9032 108.694L50.2368 115.45Z" fill="#013963"/>
<path d="M19.7663 94.0048C20.542 96.0631 22.108 97.3767 23.2641 96.9398C24.4203 96.5029 24.7277 94.4798 23.952 92.4215C23.1763 90.3632 21.6104 89.0496 20.4542 89.4865C19.298 89.9234 18.9907 91.9465 19.7663 94.0048Z" fill="#026BBA"/>
<path d="M51.9696 98.6375C51.9696 98.6375 55.7016 101.361 57.3056 103.238C57.3056 103.238 64.9803 95.7054 65.7648 94.9138L57.2851 93.0636L51.9696 98.6375Z" fill="#EB4747"/>
<path d="M36.3948 127.85C37.0447 126.574 37.9491 125.653 38.7862 125.011C38.7862 125.011 36.6056 118.798 37.109 115.163C37.0534 115.526 36.0377 122.408 36.3948 127.85Z" fill="#202338"/>
</g>
<defs>
<linearGradient id="paint0_linear_14_6127" x1="134.003" y1="170.112" x2="47.5849" y2="170.112" gradientUnits="userSpaceOnUse">
<stop stop-color="#F58631"/>
<stop offset="1" stop-color="#F2C23F"/>
</linearGradient>
<linearGradient id="paint1_linear_14_6127" x1="130.848" y1="159.604" x2="44.4296" y2="159.604" gradientUnits="userSpaceOnUse">
<stop stop-color="#FF9340"/>
<stop offset="1" stop-color="#FFCE45"/>
</linearGradient>
<linearGradient id="paint2_linear_14_6127" x1="132.613" y1="149.095" x2="46.1946" y2="149.095" gradientUnits="userSpaceOnUse">
<stop stop-color="#F58631"/>
<stop offset="1" stop-color="#F2C23F"/>
</linearGradient>
<linearGradient id="paint3_linear_14_6127" x1="-3225.47" y1="138.584" x2="-3225.76" y2="138.584" gradientUnits="userSpaceOnUse">
<stop stop-color="#FF9340"/>
<stop offset="1" stop-color="#FFCE45"/>
</linearGradient>
<linearGradient id="paint4_linear_14_6127" x1="129.375" y1="128.075" x2="42.9573" y2="128.075" gradientUnits="userSpaceOnUse">
<stop stop-color="#F58631"/>
<stop offset="1" stop-color="#F2C23F"/>
</linearGradient>
<linearGradient id="paint5_linear_14_6127" x1="127.157" y1="180.187" x2="40.7386" y2="180.187" gradientUnits="userSpaceOnUse">
<stop stop-color="#FF9340"/>
<stop offset="1" stop-color="#FFCE45"/>
</linearGradient>
<clipPath id="clip0_14_6127">
<rect width="134" height="193" fill="white"/>
</clipPath>
</defs>
</svg>
